<svg width="24" height="25" viewBox="0 0 24 25" fill="none" xmlns="http://www.w3.org/2000/svg">
<g id="mdi:instagram">
<path id="Vector" d="M7.8 2.3999H16.2C19.4 2.3999 22 4.9999 22 8.1999V16.5999C22 18.1382 21.3889 19.6134 20.3012 20.7011C19.2135 21.7888 17.7383 22.3999 16.2 22.3999H7.8C4.6 22.3999 2 19.7999 2 16.5999V8.1999C2 6.66165 2.61107 5.18639 3.69878 4.09868C4.78649 3.01097 6.26174 2.3999 7.8 2.3999ZM7.6 4.3999C6.64522 4.3999 5.72955 4.77919 5.05442 5.45432C4.37928 6.12945 4 7.04512 4 7.9999V16.7999C4 18.7899 5.61 20.3999 7.6 20.3999H16.4C17.3548 20.3999 18.2705 20.0206 18.9456 19.3455C19.6207 18.6704 20 17.7547 20 16.7999V7.9999C20 6.0099 18.39 4.3999 16.4 4.3999H7.6ZM17.25 5.8999C17.5815 5.8999 17.8995 6.0316 18.1339 6.26602C18.3683 6.50044 18.5 6.81838 18.5 7.1499C18.5 7.48142 18.3683 7.79937 18.1339 8.03379C17.8995 8.26821 17.5815 8.3999 17.25 8.3999C16.9185 8.3999 16.6005 8.26821 16.3661 8.03379C16.1317 7.79937 16 7.48142 16 7.1499C16 6.81838 16.1317 6.50044 16.3661 6.26602C16.6005 6.0316 16.9185 5.8999 17.25 5.8999ZM12 7.3999C13.3261 7.3999 14.5979 7.92669 15.5355 8.86437C16.4732 9.80205 17 11.0738 17 12.3999C17 13.726 16.4732 14.9978 15.5355 15.9354C14.5979 16.8731 13.3261 17.3999 12 17.3999C10.6739 17.3999 9.40215 16.8731 8.46447 15.9354C7.52678 14.9978 7 13.726 7 12.3999C7 11.0738 7.52678 9.80205 8.46447 8.86437C9.40215 7.92669 10.6739 7.3999 12 7.3999ZM12 9.3999C11.2044 9.3999 10.4413 9.71597 9.87868 10.2786C9.31607 10.8412 9 11.6043 9 12.3999C9 13.1956 9.31607 13.9586 9.87868 14.5212C10.4413 15.0838 11.2044 15.3999 12 15.3999C12.7956 15.3999 13.5587 15.0838 14.1213 14.5212C14.6839 13.9586 15 13.1956 15 12.3999C15 11.6043 14.6839 10.8412 14.1213 10.2786C13.5587 9.71597 12.7956 9.3999 12 9.3999Z" fill="black"/>
</g>
</svg>
